<svg width="30" height="29" viewBox="0 0 30 29" fill="none" xmlns="http://www.w3.org/2000/svg">
<path d="M26.875 0H3.125C2.49511 0 1.89102 0.250222 1.44562 0.695621C1.00022 1.14102 0.75 1.74511 0.75 2.375V26.125C0.75 26.7549 1.00022 27.359 1.44562 27.8044C1.89102 28.2498 2.49511 28.5 3.125 28.5H26.875C27.5049 28.5 28.109 28.2498 28.5544 27.8044C28.9998 27.359 29.25 26.7549 29.25 26.125V2.375C29.25 1.74511 28.9998 1.14102 28.5544 0.695621C28.109 0.250222 27.5049 0 26.875 0ZM20.9375 15.4375H16.1875V20.1875C16.1875 20.5024 16.0624 20.8045 15.8397 21.0272C15.617 21.2499 15.3149 21.375 15 21.375C14.6851 21.375 14.383 21.2499 14.1603 21.0272C13.9376 20.8045 13.8125 20.5024 13.8125 20.1875V15.4375H9.0625C8.74756 15.4375 8.44551 15.3124 8.22281 15.0897C8.00011 14.867 7.875 14.5649 7.875 14.25C7.875 13.9351 8.00011 13.633 8.22281 13.4103C8.44551 13.1876 8.74756 13.0625 9.0625 13.0625H13.8125V8.3125C13.8125 7.99756 13.9376 7.69551 14.1603 7.47281C14.383 7.25011 14.6851 7.125 15 7.125C15.3149 7.125 15.617 7.25011 15.8397 7.47281C16.0624 7.69551 16.1875 7.99756 16.1875 8.3125V13.0625H20.9375C21.2524 13.0625 21.5545 13.1876 21.7772 13.4103C21.9999 13.633 22.125 13.9351 22.125 14.25C22.125 14.5649 21.9999 14.867 21.7772 15.0897C21.5545 15.3124 21.2524 15.4375 20.9375 15.4375Z" fill="#F7F7F7"/>
</svg>
