<svg width="28" height="28" viewBox="0 0 28 28" fill="none" xmlns="http://www.w3.org/2000/svg">
<path d="M2.66667 27.85C1.93334 27.85 1.30534 27.5891 0.782669 27.0673C0.260002 26.5456 -0.000886625 25.9176 2.26372e-06 25.1833V6.51667C2.26372e-06 5.78333 0.261336 5.15533 0.784002 4.63267C1.30667 4.11 1.93422 3.84911 2.66667 3.85H14.5667L11.9 6.51667H2.66667V25.1833H21.3333V15.9167L24 13.25V25.1833C24 25.9167 23.7387 26.5447 23.216 27.0673C22.6933 27.59 22.0658 27.8509 21.3333 27.85H2.66667ZM17.5667 4.61667L19.4667 6.48333L10.6667 15.2833V17.1833H12.5333L21.3667 8.35L23.2667 10.2167L13.6667 19.85H8V14.1833L17.5667 4.61667ZM23.2667 10.2167L17.5667 4.61667L20.9 1.28333C21.4333 0.75 22.0724 0.483334 22.8173 0.483334C23.5622 0.483334 24.1898 0.75 24.7 1.28333L26.5667 3.18333C27.0778 3.69444 27.3333 4.31667 27.3333 5.05C27.3333 5.78333 27.0778 6.40556 26.5667 6.91667L23.2667 10.2167Z" fill="#F7F7F7"/>
</svg>
