<svg width="195" height="54" viewBox="0 0 195 54" fill="none" xmlns="http://www.w3.org/2000/svg">
<path d="M9.016 3.664C11.3627 3.664 13.4213 4.12267 15.192 5.04C16.984 5.95733 18.36 7.26933 19.32 8.976C20.3013 10.6613 20.792 12.624 20.792 14.864C20.792 17.104 20.3013 19.0667 19.32 20.752C18.36 22.416 16.984 23.7067 15.192 24.624C13.4213 25.5413 11.3627 26 9.016 26H1.208V3.664H9.016ZM8.856 22.192C11.2027 22.192 13.016 21.552 14.296 20.272C15.576 18.992 16.216 17.1893 16.216 14.864C16.216 12.5387 15.576 10.7253 14.296 9.424C13.016 8.10133 11.2027 7.44 8.856 7.44H5.688V22.192H8.856ZM28.0175 6.16C27.2282 6.16 26.5668 5.91467 26.0335 5.424C25.5215 4.912 25.2655 4.28267 25.2655 3.536C25.2655 2.78933 25.5215 2.17067 26.0335 1.68C26.5668 1.168 27.2282 0.911999 28.0175 0.911999C28.8068 0.911999 29.4575 1.168 29.9695 1.68C30.5028 2.17067 30.7695 2.78933 30.7695 3.536C30.7695 4.28267 30.5028 4.912 29.9695 5.424C29.4575 5.91467 28.8068 6.16 28.0175 6.16ZM30.2255 8.272V26H25.7455V8.272H30.2255ZM43.1958 7.984C44.5184 7.984 45.6811 8.25067 46.6838 8.784C47.6864 9.296 48.4758 9.968 49.0518 10.8V8.272H53.5638V26.128C53.5638 27.7707 53.2331 29.232 52.5718 30.512C51.9104 31.8133 50.9184 32.8373 49.5958 33.584C48.2731 34.352 46.6731 34.736 44.7958 34.736C42.2784 34.736 40.2091 34.1493 38.5878 32.976C36.9878 31.8027 36.0811 30.2027 35.8678 28.176H40.3158C40.5504 28.9867 41.0518 29.6267 41.8198 30.096C42.6091 30.5867 43.5584 30.832 44.6678 30.832C45.9691 30.832 47.0251 30.4373 47.8358 29.648C48.6464 28.88 49.0518 27.7067 49.0518 26.128V23.376C48.4758 24.208 47.6758 24.9013 46.6518 25.456C45.6491 26.0107 44.4971 26.288 43.1958 26.288C41.7024 26.288 40.3371 25.904 39.0998 25.136C37.8624 24.368 36.8811 23.2907 36.1558 21.904C35.4518 20.496 35.0998 18.8853 35.0998 17.072C35.0998 15.28 35.4518 13.6907 36.1558 12.304C36.8811 10.9173 37.8518 9.85067 39.0678 9.104C40.3051 8.35733 41.6811 7.984 43.1958 7.984ZM49.0518 17.136C49.0518 16.048 48.8384 15.12 48.4118 14.352C47.9851 13.5627 47.4091 12.9653 46.6838 12.56C45.9584 12.1333 45.1798 11.92 44.3478 11.92C43.5158 11.92 42.7478 12.1227 42.0438 12.528C41.3398 12.9333 40.7638 13.5307 40.3158 14.32C39.8891 15.088 39.6758 16.0053 39.6758 17.072C39.6758 18.1387 39.8891 19.0773 40.3158 19.888C40.7638 20.6773 41.3398 21.2853 42.0438 21.712C42.7691 22.1387 43.5371 22.352 44.3478 22.352C45.1798 22.352 45.9584 22.1493 46.6838 21.744C47.4091 21.3173 47.9851 20.72 48.4118 19.952C48.8384 19.1627 49.0518 18.224 49.0518 17.136ZM61.8112 6.16C61.0219 6.16 60.3606 5.91467 59.8272 5.424C59.3152 4.912 59.0592 4.28267 59.0592 3.536C59.0592 2.78933 59.3152 2.17067 59.8272 1.68C60.3606 1.168 61.0219 0.911999 61.8112 0.911999C62.6006 0.911999 63.2512 1.168 63.7632 1.68C64.2966 2.17067 64.5632 2.78933 64.5632 3.536C64.5632 4.28267 64.2966 4.912 63.7632 5.424C63.2512 5.91467 62.6006 6.16 61.8112 6.16ZM64.0192 8.272V26H59.5392V8.272H64.0192ZM75.2615 11.952V20.528C75.2615 21.1253 75.4002 21.5627 75.6775 21.84C75.9762 22.096 76.4668 22.224 77.1495 22.224H79.2295V26H76.4135C72.6375 26 70.7495 24.1653 70.7495 20.496V11.952H68.6375V8.272H70.7495V3.888H75.2615V8.272H79.2295V11.952H75.2615ZM82.8997 17.072C82.8997 15.28 83.2517 13.6907 83.9557 12.304C84.6811 10.9173 85.6518 9.85067 86.8678 9.104C88.1051 8.35733 89.4811 7.984 90.9958 7.984C92.3184 7.984 93.4704 8.25067 94.4518 8.784C95.4544 9.31733 96.2544 9.98933 96.8518 10.8V8.272H101.364V26H96.8518V23.408C96.2758 24.24 95.4758 24.9333 94.4518 25.488C93.4491 26.0213 92.2864 26.288 90.9638 26.288C89.4704 26.288 88.1051 25.904 86.8678 25.136C85.6518 24.368 84.6811 23.2907 83.9557 21.904C83.2517 20.496 82.8997 18.8853 82.8997 17.072ZM96.8518 17.136C96.8518 16.048 96.6384 15.12 96.2118 14.352C95.7851 13.5627 95.2091 12.9653 94.4838 12.56C93.7584 12.1333 92.9798 11.92 92.1478 11.92C91.3158 11.92 90.5478 12.1227 89.8438 12.528C89.1398 12.9333 88.5638 13.5307 88.1158 14.32C87.6891 15.088 87.4758 16.0053 87.4758 17.072C87.4758 18.1387 87.6891 19.0773 88.1158 19.888C88.5638 20.6773 89.1398 21.2853 89.8438 21.712C90.5691 22.1387 91.3371 22.352 92.1478 22.352C92.9798 22.352 93.7584 22.1493 94.4838 21.744C95.2091 21.3173 95.7851 20.72 96.2118 19.952C96.6384 19.1627 96.8518 18.224 96.8518 17.136ZM111.819 2.32V26H107.339V2.32H111.819ZM120.117 6.16C119.328 6.16 118.667 5.91467 118.133 5.424C117.621 4.912 117.365 4.28267 117.365 3.536C117.365 2.78933 117.621 2.17067 118.133 1.68C118.667 1.168 119.328 0.911999 120.117 0.911999C120.907 0.911999 121.557 1.168 122.069 1.68C122.603 2.17067 122.869 2.78933 122.869 3.536C122.869 4.28267 122.603 4.912 122.069 5.424C121.557 5.91467 120.907 6.16 120.117 6.16ZM122.325 8.272V26H117.845V8.272H122.325ZM135.136 26.288C133.685 26.288 132.384 26.032 131.232 25.52C130.08 24.9867 129.162 24.272 128.48 23.376C127.818 22.48 127.456 21.488 127.392 20.4H131.904C131.989 21.0827 132.32 21.648 132.896 22.096C133.493 22.544 134.229 22.768 135.104 22.768C135.957 22.768 136.618 22.5973 137.088 22.256C137.578 21.9147 137.824 21.4773 137.824 20.944C137.824 20.368 137.525 19.9413 136.928 19.664C136.352 19.3653 135.424 19.0453 134.144 18.704C132.821 18.384 131.733 18.0533 130.88 17.712C130.048 17.3707 129.322 16.848 128.704 16.144C128.106 15.44 127.808 14.4907 127.808 13.296C127.808 12.3147 128.085 11.4187 128.64 10.608C129.216 9.79733 130.026 9.15733 131.072 8.688C132.138 8.21867 133.386 7.984 134.816 7.984C136.928 7.984 138.613 8.51733 139.872 9.584C141.13 10.6293 141.824 12.048 141.952 13.84H137.664C137.6 13.136 137.301 12.5813 136.768 12.176C136.256 11.7493 135.562 11.536 134.688 11.536C133.877 11.536 133.248 11.6853 132.8 11.984C132.373 12.2827 132.16 12.6987 132.16 13.232C132.16 13.8293 132.458 14.288 133.056 14.608C133.653 14.9067 134.581 15.216 135.84 15.536C137.12 15.856 138.176 16.1867 139.008 16.528C139.84 16.8693 140.554 17.4027 141.152 18.128C141.77 18.832 142.09 19.7707 142.112 20.944C142.112 21.968 141.824 22.8853 141.248 23.696C140.693 24.5067 139.882 25.1467 138.816 25.616C137.77 26.064 136.544 26.288 135.136 26.288ZM146.237 17.072C146.237 15.28 146.589 13.6907 147.293 12.304C148.019 10.9173 148.989 9.85067 150.205 9.104C151.443 8.35733 152.819 7.984 154.333 7.984C155.656 7.984 156.808 8.25067 157.789 8.784C158.792 9.31733 159.592 9.98933 160.189 10.8V8.272H164.701V26H160.189V23.408C159.613 24.24 158.813 24.9333 157.789 25.488C156.787 26.0213 155.624 26.288 154.301 26.288C152.808 26.288 151.443 25.904 150.205 25.136C148.989 24.368 148.019 23.2907 147.293 21.904C146.589 20.496 146.237 18.8853 146.237 17.072ZM160.189 17.136C160.189 16.048 159.976 15.12 159.549 14.352C159.123 13.5627 158.547 12.9653 157.821 12.56C157.096 12.1333 156.317 11.92 155.485 11.92C154.653 11.92 153.885 12.1227 153.181 12.528C152.477 12.9333 151.901 13.5307 151.453 14.32C151.027 15.088 150.813 16.0053 150.813 17.072C150.813 18.1387 151.027 19.0773 151.453 19.888C151.901 20.6773 152.477 21.2853 153.181 21.712C153.907 22.1387 154.675 22.352 155.485 22.352C156.317 22.352 157.096 22.1493 157.821 21.744C158.547 21.3173 159.123 20.72 159.549 19.952C159.976 19.1627 160.189 18.224 160.189 17.136ZM177.461 26.288C176.01 26.288 174.709 26.032 173.557 25.52C172.405 24.9867 171.487 24.272 170.805 23.376C170.143 22.48 169.781 21.488 169.717 20.4H174.229C174.314 21.0827 174.645 21.648 175.221 22.096C175.818 22.544 176.554 22.768 177.429 22.768C178.282 22.768 178.943 22.5973 179.413 22.256C179.903 21.9147 180.149 21.4773 180.149 20.944C180.149 20.368 179.85 19.9413 179.253 19.664C178.677 19.3653 177.749 19.0453 176.469 18.704C175.146 18.384 174.058 18.0533 173.205 17.712C172.373 17.3707 171.647 16.848 171.029 16.144C170.431 15.44 170.133 14.4907 170.133 13.296C170.133 12.3147 170.41 11.4187 170.965 10.608C171.541 9.79733 172.351 9.15733 173.397 8.688C174.463 8.21867 175.711 7.984 177.141 7.984C179.253 7.984 180.938 8.51733 182.197 9.584C183.455 10.6293 184.149 12.048 184.277 13.84H179.989C179.925 13.136 179.626 12.5813 179.093 12.176C178.581 11.7493 177.887 11.536 177.013 11.536C176.202 11.536 175.573 11.6853 175.125 11.984C174.698 12.2827 174.485 12.6987 174.485 13.232C174.485 13.8293 174.783 14.288 175.381 14.608C175.978 14.9067 176.906 15.216 178.165 15.536C179.445 15.856 180.501 16.1867 181.333 16.528C182.165 16.8693 182.879 17.4027 183.477 18.128C184.095 18.832 184.415 19.7707 184.437 20.944C184.437 21.968 184.149 22.8853 183.573 23.696C183.018 24.5067 182.207 25.1467 181.141 25.616C180.095 26.064 178.869 26.288 177.461 26.288ZM191.986 6.16C191.197 6.16 190.536 5.91467 190.002 5.424C189.49 4.912 189.234 4.28267 189.234 3.536C189.234 2.78933 189.49 2.17067 190.002 1.68C190.536 1.168 191.197 0.911999 191.986 0.911999C192.776 0.911999 193.426 1.168 193.938 1.68C194.472 2.17067 194.738 2.78933 194.738 3.536C194.738 4.28267 194.472 4.912 193.938 5.424C193.426 5.91467 192.776 6.16 191.986 6.16ZM194.194 8.272V26H189.714V8.272H194.194Z" fill="#1A1A1A"/>
<path d="M3.18 50.78H7.78V53H0.38V39.04H3.18V50.78ZM15.4797 53.18C14.413 53.18 13.453 52.9467 12.5997 52.48C11.7464 52 11.073 51.3267 10.5797 50.46C10.0997 49.5933 9.85969 48.5933 9.85969 47.46C9.85969 46.3267 10.1064 45.3267 10.5997 44.46C11.1064 43.5933 11.793 42.9267 12.6597 42.46C13.5264 41.98 14.493 41.74 15.5597 41.74C16.6264 41.74 17.593 41.98 18.4597 42.46C19.3264 42.9267 20.0064 43.5933 20.4997 44.46C21.0064 45.3267 21.2597 46.3267 21.2597 47.46C21.2597 48.5933 20.9997 49.5933 20.4797 50.46C19.973 51.3267 19.2797 52 18.3997 52.48C17.533 52.9467 16.5597 53.18 15.4797 53.18ZM15.4797 50.74C15.9864 50.74 16.4597 50.62 16.8997 50.38C17.353 50.1267 17.713 49.7533 17.9797 49.26C18.2464 48.7667 18.3797 48.1667 18.3797 47.46C18.3797 46.4067 18.0997 45.6 17.5397 45.04C16.993 44.4667 16.3197 44.18 15.5197 44.18C14.7197 44.18 14.0464 44.4667 13.4997 45.04C12.9664 45.6 12.6997 46.4067 12.6997 47.46C12.6997 48.5133 12.9597 49.3267 13.4797 49.9C14.013 50.46 14.6797 50.74 15.4797 50.74ZM30.4536 41.76C31.7736 41.76 32.8403 42.18 33.6536 43.02C34.4669 43.8467 34.8736 45.0067 34.8736 46.5V53H32.0736V46.88C32.0736 46 31.8536 45.3267 31.4136 44.86C30.9736 44.38 30.3736 44.14 29.6136 44.14C28.8403 44.14 28.2269 44.38 27.7736 44.86C27.3336 45.3267 27.1136 46 27.1136 46.88V53H24.3136V41.92H27.1136V43.3C27.4869 42.82 27.9603 42.4467 28.5336 42.18C29.1203 41.9 29.7603 41.76 30.4536 41.76ZM41.7963 44.22V49.58C41.7963 49.9533 41.8829 50.2267 42.0563 50.4C42.2429 50.56 42.5496 50.64 42.9763 50.64H44.2763V53H42.5163C40.1563 53 38.9763 51.8533 38.9763 49.56V44.22H37.6563V41.92H38.9763V39.18H41.7963V41.92H44.2763V44.22H41.7963ZM46.5702 47.42C46.5702 46.3 46.7902 45.3067 47.2302 44.44C47.6835 43.5733 48.2902 42.9067 49.0502 42.44C49.8235 41.9733 50.6835 41.74 51.6302 41.74C52.4568 41.74 53.1768 41.9067 53.7902 42.24C54.4168 42.5733 54.9168 42.9933 55.2902 43.5V41.92H58.1102V53H55.2902V51.38C54.9302 51.9 54.4302 52.3333 53.7902 52.68C53.1635 53.0133 52.4368 53.18 51.6102 53.18C50.6768 53.18 49.8235 52.94 49.0502 52.46C48.2902 51.98 47.6835 51.3067 47.2302 50.44C46.7902 49.56 46.5702 48.5533 46.5702 47.42ZM55.2902 47.46C55.2902 46.78 55.1568 46.2 54.8902 45.72C54.6235 45.2267 54.2635 44.8533 53.8102 44.6C53.3568 44.3333 52.8702 44.2 52.3502 44.2C51.8302 44.2 51.3502 44.3267 50.9102 44.58C50.4702 44.8333 50.1102 45.2067 49.8302 45.7C49.5635 46.18 49.4302 46.7533 49.4302 47.42C49.4302 48.0867 49.5635 48.6733 49.8302 49.18C50.1102 49.6733 50.4702 50.0533 50.9102 50.32C51.3635 50.5867 51.8435 50.72 52.3502 50.72C52.8702 50.72 53.3568 50.5933 53.8102 50.34C54.2635 50.0733 54.6235 49.7 54.8902 49.22C55.1568 48.7267 55.2902 48.14 55.2902 47.46ZM64.6448 43.64C65.0048 43.0533 65.4715 42.5933 66.0448 42.26C66.6315 41.9267 67.2982 41.76 68.0448 41.76V44.7H67.3048C66.4248 44.7 65.7582 44.9067 65.3048 45.32C64.8648 45.7333 64.6448 46.4533 64.6448 47.48V53H61.8448V41.92H64.6448V43.64ZM84.6164 45.84C85.4031 45.9867 86.0497 46.38 86.5564 47.02C87.0631 47.66 87.3164 48.3933 87.3164 49.22C87.3164 49.9667 87.1297 50.6267 86.7564 51.2C86.3964 51.76 85.8697 52.2 85.1764 52.52C84.4831 52.84 83.6631 53 82.7164 53H76.6964V39.04H82.4564C83.4031 39.04 84.2164 39.1933 84.8964 39.5C85.5897 39.8067 86.1097 40.2333 86.4564 40.78C86.8164 41.3267 86.9964 41.9467 86.9964 42.64C86.9964 43.4533 86.7764 44.1333 86.3364 44.68C85.9097 45.2267 85.3364 45.6133 84.6164 45.84ZM79.4964 44.8H82.0564C82.7231 44.8 83.2364 44.6533 83.5964 44.36C83.9564 44.0533 84.1364 43.62 84.1364 43.06C84.1364 42.5 83.9564 42.0667 83.5964 41.76C83.2364 41.4533 82.7231 41.3 82.0564 41.3H79.4964V44.8ZM82.3164 50.72C82.9964 50.72 83.5231 50.56 83.8964 50.24C84.2831 49.92 84.4764 49.4667 84.4764 48.88C84.4764 48.28 84.2764 47.8133 83.8764 47.48C83.4764 47.1333 82.9364 46.96 82.2564 46.96H79.4964V50.72H82.3164ZM89.828 47.42C89.828 46.3 90.048 45.3067 90.488 44.44C90.9413 43.5733 91.548 42.9067 92.308 42.44C93.0813 41.9733 93.9413 41.74 94.888 41.74C95.7146 41.74 96.4346 41.9067 97.048 42.24C97.6746 42.5733 98.1746 42.9933 98.548 43.5V41.92H101.368V53H98.548V51.38C98.188 51.9 97.688 52.3333 97.048 52.68C96.4213 53.0133 95.6946 53.18 94.868 53.18C93.9346 53.18 93.0813 52.94 92.308 52.46C91.548 51.98 90.9413 51.3067 90.488 50.44C90.048 49.56 89.828 48.5533 89.828 47.42ZM98.548 47.46C98.548 46.78 98.4146 46.2 98.148 45.72C97.8813 45.2267 97.5213 44.8533 97.068 44.6C96.6146 44.3333 96.128 44.2 95.608 44.2C95.088 44.2 94.608 44.3267 94.168 44.58C93.728 44.8333 93.368 45.2067 93.088 45.7C92.8213 46.18 92.688 46.7533 92.688 47.42C92.688 48.0867 92.8213 48.6733 93.088 49.18C93.368 49.6733 93.728 50.0533 94.168 50.32C94.6213 50.5867 95.1013 50.72 95.608 50.72C96.128 50.72 96.6146 50.5933 97.068 50.34C97.5213 50.0733 97.8813 49.7 98.148 49.22C98.4146 48.7267 98.548 48.14 98.548 47.46ZM107.903 38.2V53H105.103V38.2H107.903ZM113.089 40.6C112.596 40.6 112.182 40.4467 111.849 40.14C111.529 39.82 111.369 39.4267 111.369 38.96C111.369 38.4933 111.529 38.1067 111.849 37.8C112.182 37.48 112.596 37.32 113.089 37.32C113.582 37.32 113.989 37.48 114.309 37.8C114.642 38.1067 114.809 38.4933 114.809 38.96C114.809 39.4267 114.642 39.82 114.309 40.14C113.989 40.4467 113.582 40.6 113.089 40.6ZM114.469 41.92V53H111.669V41.92H114.469Z" fill="#FC8D45"/>
</svg>
