<svg width="23" height="23" viewBox="0 0 23 23" fill="none" xmlns="http://www.w3.org/2000/svg">
<path d="M16.4203 14.5263H15.4224L15.0688 14.1853C16.3494 12.6998 17.0533 10.8034 17.0519 8.84209C17.0519 7.2182 16.5704 5.63078 15.6682 4.28057C14.766 2.93035 13.4837 1.87799 11.9834 1.25655C10.4831 0.635119 8.83228 0.472523 7.2396 0.789328C5.64691 1.10613 4.18393 1.88811 3.03567 3.03637C1.88741 4.18464 1.10543 5.64761 0.788626 7.2403C0.471821 8.83298 0.634417 10.4838 1.25585 11.9841C1.87729 13.4844 2.92965 14.7667 4.27987 15.6689C5.63008 16.5711 7.2175 17.0526 8.84139 17.0526C10.8751 17.0526 12.7445 16.3074 14.1845 15.0695L14.5256 15.4231V16.421L20.8414 22.7242L22.7235 20.8421L16.4203 14.5263ZM8.84139 14.5263C5.69613 14.5263 3.15718 11.9874 3.15718 8.84209C3.15718 5.69683 5.69613 3.15788 8.84139 3.15788C11.9867 3.15788 14.5256 5.69683 14.5256 8.84209C14.5256 11.9874 11.9867 14.5263 8.84139 14.5263Z" fill="#F7F7F7"/>
</svg>
