<svg width="27" height="27" viewBox="0 0 27 27" fill="none" xmlns="http://www.w3.org/2000/svg">
<path d="M7.66969 11.3299L6.93563 13.5H5.0625L8.20463 5.0625H10.3714L13.5 13.5H11.5307L10.7966 11.3299H7.66969ZM10.4271 10.0879L9.28125 6.67575H9.19856L8.05275 10.0879H10.4271Z" fill="white"/>
<path d="M0 3.375C0 2.47989 0.355579 1.62145 0.988515 0.988515C1.62145 0.355579 2.47989 0 3.375 0H15.1875C16.0826 0 16.941 0.355579 17.574 0.988515C18.2069 1.62145 18.5625 2.47989 18.5625 3.375V8.4375H23.625C24.5201 8.4375 25.3785 8.79308 26.0115 9.42601C26.6444 10.0589 27 10.9174 27 11.8125V23.625C27 24.5201 26.6444 25.3785 26.0115 26.0115C25.3785 26.6444 24.5201 27 23.625 27H11.8125C10.9174 27 10.0589 26.6444 9.42601 26.0115C8.79308 25.3785 8.4375 24.5201 8.4375 23.625V18.5625H3.375C2.47989 18.5625 1.62145 18.2069 0.988515 17.574C0.355579 16.941 0 16.0826 0 15.1875V3.375ZM3.375 1.6875C2.92745 1.6875 2.49822 1.86529 2.18176 2.18176C1.86529 2.49822 1.6875 2.92745 1.6875 3.375V15.1875C1.6875 15.6351 1.86529 16.0643 2.18176 16.3807C2.49822 16.6972 2.92745 16.875 3.375 16.875H15.1875C15.6351 16.875 16.0643 16.6972 16.3807 16.3807C16.6972 16.0643 16.875 15.6351 16.875 15.1875V3.375C16.875 2.92745 16.6972 2.49822 16.3807 2.18176C16.0643 1.86529 15.6351 1.6875 15.1875 1.6875H3.375ZM15.4204 18.5541C15.7461 19.062 16.0987 19.5379 16.4835 19.9817C15.2212 20.952 13.6603 21.6709 11.8125 22.1619C12.1129 22.5281 12.5736 23.2335 12.7491 23.625C14.6475 23.0192 16.2591 22.2007 17.6192 21.1039C18.9304 22.2261 20.5538 23.0698 22.5636 23.5879C22.788 23.1593 23.2622 22.4522 23.625 22.086C21.7266 21.6591 20.1538 20.9149 18.8663 19.9193C20.0154 18.6587 20.9284 17.1332 21.6017 15.2668H23.625V13.5H18.5625V15.2668H19.8534C19.3168 16.6911 18.6047 17.8757 17.7069 18.8612C17.459 18.597 17.2252 18.3199 17.0066 18.0309C16.5304 18.3363 15.9848 18.5162 15.4204 18.5541Z" fill="white"/>
</svg>
