<svg width="24" height="28" viewBox="0 0 24 28" fill="none" xmlns="http://www.w3.org/2000/svg">
<path d="M22.6671 6.25C23.007 6.25038 23.3339 6.38051 23.581 6.6138C23.8281 6.84709 23.9768 7.16594 23.9967 7.5052C24.0166 7.84445 23.9062 8.17851 23.6881 8.43911C23.47 8.69972 23.1606 8.8672 22.8231 8.90734L22.6671 8.91667H22.5591L21.3338 23.5833C21.3339 24.6036 20.944 25.5854 20.2441 26.3277C19.5442 27.07 18.587 27.5168 17.5685 27.5767L17.3338 27.5833H6.66714C4.53648 27.5833 2.79514 25.918 2.67781 23.9167L2.67114 23.694L1.44048 8.91667H1.33381C0.99397 8.91629 0.6671 8.78617 0.419985 8.55287C0.17287 8.31958 0.0241627 8.00073 0.00424651 7.66148C-0.0156697 7.32222 0.0947088 6.98817 0.312829 6.72756C0.53095 6.46696 0.840348 6.29948 1.17781 6.25934L1.33381 6.25H22.6671ZM14.6671 0.916672C15.3744 0.916672 16.0527 1.19762 16.5528 1.69772C17.0529 2.19782 17.3338 2.87609 17.3338 3.58334C17.3334 3.92318 17.2033 4.25005 16.97 4.49716C16.7367 4.74428 16.4179 4.89298 16.0786 4.9129C15.7394 4.93282 15.4053 4.82244 15.1447 4.60432C14.8841 4.3862 14.7166 4.0768 14.6765 3.73934L14.6671 3.58334H9.33381L9.32448 3.73934C9.28434 4.0768 9.11686 4.3862 8.85625 4.60432C8.59565 4.82244 8.26159 4.93282 7.92234 4.9129C7.58308 4.89298 7.26423 4.74428 7.03094 4.49716C6.79765 4.25005 6.66752 3.92318 6.66714 3.58334C6.66693 2.91057 6.92102 2.26258 7.37847 1.76927C7.83593 1.27597 8.46294 0.973796 9.13381 0.923339L9.33381 0.916672H14.6671Z" fill="#F7F7F7"/>
</svg>
